<?xml version="1.0" standalone="no"?>
<!DOCTYPE svg PUBLIC "-//W3C//DTD SVG 20010904//EN"
 "http://www.w3.org/TR/2001/REC-SVG-20010904/DTD/svg10.dtd">
<svg version="1.0" xmlns="http://www.w3.org/2000/svg"
 width="1920.000000pt" height="1080.000000pt" viewBox="0 0 1920.000000 1080.000000"
 preserveAspectRatio="xMidYMid meet">
<metadata>
Created by potrace 1.14, written by Peter Selinger 2001-2017
</metadata>
<g transform="translate(0.000000,1080.000000) scale(0.100000,-0.100000)"
fill="#000000" stroke="none">
<path d="M8561 8034 l-31 -26 -2 -2036 c-3 -2021 -3 -2037 -23 -2087 l-21 -50
-162 -3 -162 -2 -2 2069 -3 2069 -24 26 c-33 35 -74 34 -112 -3 l-29 -29 0
-2125 0 -2124 21 -27 20 -26 184 0 c104 0 186 -4 190 -9 3 -6 -15 -61 -39
-123 -57 -142 -226 -590 -257 -681 -22 -62 -23 -69 -9 -95 12 -21 24 -28 56
-30 65 -5 44 -49 307 638 l114 295 822 3 821 2 15 -32 c8 -18 62 -152 119
-298 57 -146 131 -335 165 -421 34 -86 70 -164 80 -173 27 -24 86 -21 105 6 9
12 16 30 16 40 0 16 -112 317 -250 673 -35 88 -63 169 -64 180 -1 19 6 20 150
23 113 2 154 -1 161 -10 6 -7 78 -186 162 -398 204 -520 201 -513 234 -524 36
-13 74 2 95 36 15 25 15 30 -6 75 -11 26 -71 179 -133 338 -61 160 -266 679
-456 1155 -189 476 -421 1059 -515 1295 -94 237 -224 563 -288 725 -125 314
-140 340 -194 326 -37 -9 -58 -36 -84 -108 -13 -35 -41 -108 -62 -163 -77
-199 -362 -941 -384 -1000 -13 -33 -97 -253 -188 -490 -91 -236 -168 -438
-171 -447 -4 -10 -11 -18 -17 -18 -7 0 -11 577 -12 1786 l-3 1786 -24 19 c-32
26 -74 24 -110 -7z m1213 -1994 c73 -184 183 -461 244 -615 60 -154 225 -571
366 -926 141 -355 256 -651 256 -657 0 -20 -310 -12 -321 8 -5 8 -79 195 -165
415 -221 565 -577 1458 -636 1597 l-50 116 35 94 c86 227 120 309 128 306 5
-2 69 -154 143 -338z m-306 -470 c33 -85 76 -195 95 -245 20 -49 158 -398 307
-775 150 -377 275 -693 277 -703 5 -16 -32 -17 -718 -15 l-724 3 0 80 c1 66 6
94 32 160 39 97 244 631 283 735 15 41 78 206 140 365 177 462 207 539 214
559 11 33 29 2 94 -164z"/>
</g>
</svg>
